<mxfile host="65bd71144e">
    <diagram id="UReAXdLRAcPCL9Qggm69" name="Page-1">
        <mxGraphModel dx="1524" dy="1782" grid="1" gridSize="10" guides="1" tooltips="1" connect="1" arrows="1" fold="1" page="1" pageScale="1" pageWidth="827" pageHeight="1169" background="#ffffff" math="0" shadow="0">
            <root>
                <mxCell id="0"/>
                <mxCell id="1" parent="0"/>
                <mxCell id="16" value="opt" style="shape=umlFrame;whiteSpace=wrap;html=1;" parent="1" vertex="1">
                    <mxGeometry x="970" y="650" width="300" height="200" as="geometry"/>
                </mxCell>
                <mxCell id="2" value="客户端" style="shape=umlLifeline;perimeter=lifelinePerimeter;whiteSpace=wrap;html=1;container=1;collapsible=0;recursiveResize=0;outlineConnect=0;" parent="1" vertex="1">
                    <mxGeometry x="-80" y="70" width="100" height="810" as="geometry"/>
                </mxCell>
                <mxCell id="5" value="" style="html=1;points=[];perimeter=orthogonalPerimeter;" parent="2" vertex="1">
                    <mxGeometry x="45" y="140" width="10" height="100" as="geometry"/>
                </mxCell>
                <mxCell id="6" value="提取奖励" style="edgeStyle=orthogonalEdgeStyle;html=1;align=left;spacingLeft=2;endArrow=block;rounded=0;entryX=1;entryY=0;" parent="2" target="5" edge="1">
                    <mxGeometry relative="1" as="geometry">
                        <mxPoint x="50" y="120" as="sourcePoint"/>
                        <Array as="points">
                            <mxPoint x="80" y="120"/>
                        </Array>
                    </mxGeometry>
                </mxCell>
                <mxCell id="8" value="提取奖励请求" style="html=1;verticalAlign=bottom;endArrow=block;" parent="2" target="3" edge="1">
                    <mxGeometry width="80" relative="1" as="geometry">
                        <mxPoint x="60" y="240" as="sourcePoint"/>
                        <mxPoint x="140" y="240" as="targetPoint"/>
                    </mxGeometry>
                </mxCell>
                <mxCell id="13" value="" style="html=1;points=[];perimeter=orthogonalPerimeter;" parent="2" vertex="1">
                    <mxGeometry x="45" y="420" width="10" height="70" as="geometry"/>
                </mxCell>
                <mxCell id="14" value="1.提取奖励参数&lt;br&gt;2.signature" style="html=1;verticalAlign=bottom;endArrow=block;" parent="2" target="4" edge="1">
                    <mxGeometry width="80" relative="1" as="geometry">
                        <mxPoint x="60" y="490" as="sourcePoint"/>
                        <mxPoint x="140" y="490" as="targetPoint"/>
                    </mxGeometry>
                </mxCell>
                <mxCell id="3" value="游戏服务器" style="shape=umlLifeline;perimeter=lifelinePerimeter;whiteSpace=wrap;html=1;container=1;collapsible=0;recursiveResize=0;outlineConnect=0;" parent="1" vertex="1">
                    <mxGeometry x="290" y="70" width="100" height="850" as="geometry"/>
                </mxCell>
                <mxCell id="7" value="" style="html=1;points=[];perimeter=orthogonalPerimeter;" parent="3" vertex="1">
                    <mxGeometry x="45" y="240" width="10" height="90" as="geometry"/>
                </mxCell>
                <mxCell id="4" value="合约" style="shape=umlLifeline;perimeter=lifelinePerimeter;whiteSpace=wrap;html=1;container=1;collapsible=0;recursiveResize=0;outlineConnect=0;fillColor=#60a917;fontColor=#ffffff;strokeColor=#2D7600;" parent="1" vertex="1">
                    <mxGeometry x="1080" y="70" width="100" height="830" as="geometry"/>
                </mxCell>
                <mxCell id="11" value="" style="html=1;points=[];perimeter=orthogonalPerimeter;" parent="4" vertex="1">
                    <mxGeometry x="45" y="490" width="10" height="80" as="geometry"/>
                </mxCell>
                <mxCell id="9" value="1.中心话验证&lt;br&gt;2.安全验证&lt;br&gt;3.用A私钥对合约调用数据进行签名" style="text;html=1;align=center;verticalAlign=middle;resizable=0;points=[];autosize=1;strokeColor=none;fillColor=none;" parent="1" vertex="1">
                    <mxGeometry x="740" y="400" width="210" height="60" as="geometry"/>
                </mxCell>
                <mxCell id="10" value="A.领取奖励数据签名私钥，有该私钥的签名数据才能提取奖励&lt;br&gt;B.准备一张放币合约，提前向合约转入usdt" style="html=1;align=left;" parent="1" vertex="1">
                    <mxGeometry x="100" y="-140" width="350" height="80" as="geometry"/>
                </mxCell>
                <mxCell id="12" value="1.提取奖励参数&lt;br&gt;2.signature" style="html=1;verticalAlign=bottom;endArrow=open;dashed=1;endSize=8;exitX=0.65;exitY=1.013;exitDx=0;exitDy=0;exitPerimeter=0;" parent="1" edge="1" source="BJWTS2ExdvN6_drBvD7u-24">
                    <mxGeometry x="0.0039" y="-1" relative="1" as="geometry">
                        <mxPoint x="330" y="470" as="sourcePoint"/>
                        <mxPoint x="350" y="470" as="targetPoint"/>
                        <mxPoint x="-1" as="offset"/>
                    </mxGeometry>
                </mxCell>
                <mxCell id="15" value="1.signature校验&lt;br&gt;2.参数合理性校验" style="text;html=1;align=center;verticalAlign=middle;resizable=0;points=[];autosize=1;strokeColor=none;fillColor=none;" parent="1" vertex="1">
                    <mxGeometry x="1140" y="580" width="120" height="40" as="geometry"/>
                </mxCell>
                <mxCell id="17" value="" style="line;strokeWidth=1;fillColor=none;align=left;verticalAlign=middle;spacingTop=-1;spacingLeft=3;spacingRight=3;rotatable=0;labelPosition=right;points=[];portConstraint=eastwest;strokeColor=inherit;" parent="1" vertex="1">
                    <mxGeometry x="980" y="746" width="290" height="8" as="geometry"/>
                </mxCell>
                <mxCell id="18" value="校验通过" style="text;html=1;align=center;verticalAlign=middle;resizable=0;points=[];autosize=1;strokeColor=none;fillColor=none;" parent="1" vertex="1">
                    <mxGeometry x="1030" y="660" width="70" height="30" as="geometry"/>
                </mxCell>
                <mxCell id="19" value="" style="html=1;points=[];perimeter=orthogonalPerimeter;" parent="1" vertex="1">
                    <mxGeometry x="1125" y="690" width="10" height="40" as="geometry"/>
                </mxCell>
                <mxCell id="20" value="正常提取，交易通过" style="text;html=1;align=center;verticalAlign=middle;resizable=0;points=[];autosize=1;strokeColor=none;fillColor=none;" parent="1" vertex="1">
                    <mxGeometry x="1135" y="695" width="130" height="30" as="geometry"/>
                </mxCell>
                <mxCell id="21" value="" style="html=1;points=[];perimeter=orthogonalPerimeter;" parent="1" vertex="1">
                    <mxGeometry x="1125" y="780" width="10" height="40" as="geometry"/>
                </mxCell>
                <mxCell id="22" value="校验链上报错" style="text;html=1;align=center;verticalAlign=middle;resizable=0;points=[];autosize=1;strokeColor=none;fillColor=none;" parent="1" vertex="1">
                    <mxGeometry x="1150" y="785" width="100" height="30" as="geometry"/>
                </mxCell>
                <mxCell id="23" value="校验失败" style="text;html=1;align=center;verticalAlign=middle;resizable=0;points=[];autosize=1;strokeColor=none;fillColor=none;" parent="1" vertex="1">
                    <mxGeometry x="1030" y="770" width="70" height="30" as="geometry"/>
                </mxCell>
                <mxCell id="BJWTS2ExdvN6_drBvD7u-23" value="服务器" style="shape=umlLifeline;perimeter=lifelinePerimeter;whiteSpace=wrap;html=1;container=1;collapsible=0;recursiveResize=0;outlineConnect=0;fillColor=#60a917;fontColor=#ffffff;strokeColor=#2D7600;" vertex="1" parent="1">
                    <mxGeometry x="680" y="70" width="100" height="850" as="geometry"/>
                </mxCell>
                <mxCell id="BJWTS2ExdvN6_drBvD7u-24" value="" style="html=1;points=[];perimeter=orthogonalPerimeter;" vertex="1" parent="BJWTS2ExdvN6_drBvD7u-23">
                    <mxGeometry x="45" y="320" width="10" height="80" as="geometry"/>
                </mxCell>
                <mxCell id="BJWTS2ExdvN6_drBvD7u-25" value="领奖逻辑判断" style="text;html=1;align=center;verticalAlign=middle;resizable=0;points=[];autosize=1;strokeColor=none;fillColor=none;" vertex="1" parent="1">
                    <mxGeometry x="364" y="340" width="100" height="30" as="geometry"/>
                </mxCell>
                <mxCell id="BJWTS2ExdvN6_drBvD7u-26" value="满足领奖条件" style="html=1;verticalAlign=bottom;endArrow=block;exitX=0.05;exitY=0.9;exitDx=0;exitDy=0;exitPerimeter=0;" edge="1" parent="1" source="7" target="BJWTS2ExdvN6_drBvD7u-23">
                    <mxGeometry width="80" relative="1" as="geometry">
                        <mxPoint x="400" y="390" as="sourcePoint"/>
                        <mxPoint x="480" y="390" as="targetPoint"/>
                    </mxGeometry>
                </mxCell>
                <mxCell id="BJWTS2ExdvN6_drBvD7u-28" value="1.提取奖励参数&lt;br&gt;2.signature" style="html=1;verticalAlign=bottom;endArrow=open;dashed=1;endSize=8;" edge="1" parent="1" source="3">
                    <mxGeometry x="0.0039" y="-1" relative="1" as="geometry">
                        <mxPoint x="321.5" y="495.52" as="sourcePoint"/>
                        <mxPoint x="-20" y="490" as="targetPoint"/>
                        <mxPoint x="-1" as="offset"/>
                    </mxGeometry>
                </mxCell>
            </root>
        </mxGraphModel>
    </diagram>
    <diagram id="at37EF0rCY95w1ZWkKzU" name="Page-2">
        <mxGraphModel dx="697" dy="613" grid="1" gridSize="10" guides="1" tooltips="1" connect="1" arrows="1" fold="1" page="1" pageScale="1" pageWidth="827" pageHeight="1169" background="none" math="0" shadow="0">
            <root>
                <mxCell id="0"/>
                <mxCell id="1" parent="0"/>
                <mxCell id="sHBEV50pY3sf6KLZN9U_-1" value="客户端" style="shape=umlLifeline;perimeter=lifelinePerimeter;whiteSpace=wrap;html=1;container=1;collapsible=0;recursiveResize=0;outlineConnect=0;" parent="1" vertex="1">
                    <mxGeometry x="314" y="60" width="100" height="530" as="geometry"/>
                </mxCell>
                <mxCell id="sHBEV50pY3sf6KLZN9U_-6" value="" style="html=1;points=[];perimeter=orthogonalPerimeter;" parent="sHBEV50pY3sf6KLZN9U_-1" vertex="1">
                    <mxGeometry x="45" y="120" width="10" height="40" as="geometry"/>
                </mxCell>
                <mxCell id="sHBEV50pY3sf6KLZN9U_-7" value="发起领取奖励" style="edgeStyle=orthogonalEdgeStyle;html=1;align=left;spacingLeft=2;endArrow=block;rounded=0;entryX=1;entryY=0;" parent="sHBEV50pY3sf6KLZN9U_-1" target="sHBEV50pY3sf6KLZN9U_-6" edge="1">
                    <mxGeometry relative="1" as="geometry">
                        <mxPoint x="46" y="100" as="sourcePoint"/>
                        <Array as="points">
                            <mxPoint x="76" y="100"/>
                        </Array>
                    </mxGeometry>
                </mxCell>
                <mxCell id="sHBEV50pY3sf6KLZN9U_-8" value="提币请求" style="html=1;verticalAlign=bottom;endArrow=block;" parent="sHBEV50pY3sf6KLZN9U_-1" target="sHBEV50pY3sf6KLZN9U_-5" edge="1">
                    <mxGeometry width="80" relative="1" as="geometry">
                        <mxPoint x="56" y="160" as="sourcePoint"/>
                        <mxPoint x="136" y="160" as="targetPoint"/>
                    </mxGeometry>
                </mxCell>
                <mxCell id="sHBEV50pY3sf6KLZN9U_-5" value="服务端" style="shape=umlLifeline;perimeter=lifelinePerimeter;whiteSpace=wrap;html=1;container=1;collapsible=0;recursiveResize=0;outlineConnect=0;" parent="1" vertex="1">
                    <mxGeometry x="520" y="60" width="100" height="530" as="geometry"/>
                </mxCell>
                <mxCell id="sHBEV50pY3sf6KLZN9U_-9" value="" style="html=1;points=[];perimeter=orthogonalPerimeter;" parent="sHBEV50pY3sf6KLZN9U_-5" vertex="1">
                    <mxGeometry x="45" y="160" width="10" height="80" as="geometry"/>
                </mxCell>
                <mxCell id="sHBEV50pY3sf6KLZN9U_-10" value="1.提币请求校验&lt;br&gt;2.放币（用钱包私钥签名转帐）" style="text;html=1;align=center;verticalAlign=middle;resizable=0;points=[];autosize=1;strokeColor=none;fillColor=none;" parent="1" vertex="1">
                    <mxGeometry x="590" y="240" width="190" height="40" as="geometry"/>
                </mxCell>
                <mxCell id="sHBEV50pY3sf6KLZN9U_-11" value="回调放币状态" style="html=1;verticalAlign=bottom;endArrow=open;dashed=1;endSize=8;" parent="1" target="sHBEV50pY3sf6KLZN9U_-1" edge="1">
                    <mxGeometry relative="1" as="geometry">
                        <mxPoint x="550" y="310" as="sourcePoint"/>
                        <mxPoint x="470" y="310" as="targetPoint"/>
                    </mxGeometry>
                </mxCell>
            </root>
        </mxGraphModel>
    </diagram>
</mxfile>